<svg width="200" height="200" viewBox="0 0 200 200" fill="none" xmlns="http://www.w3.org/2000/svg">
<g clip-path="url(#clip0_42_8)">
<rect width="200" height="200" fill="#012136"/>
<path d="M87.6006 143.291L90.3076 138.178V166H87.6006V143.291ZM93.0146 132.914L95.7217 127.801V166H93.0146V132.914ZM98.4287 122.688L101.136 117.537V166H98.4287V122.688ZM80.269 142.013L78.7275 139.193L97.376 103.738H100.421L80.269 142.013ZM77.1484 136.11L75.5693 133.252L91.21 103.738H94.293L77.1484 136.11ZM59.0264 138.479L61.7334 143.592V166H59.0264V138.479ZM53.6123 128.177L56.3193 133.29V166H53.6123V128.177ZM48.1982 117.875L50.9053 123.026V166H48.1982V117.875ZM70.0801 149.758H67.0347L45.4912 108.889V166H42.7842V103.738H45.8296L70.0801 149.758ZM76.2085 149.758H73.1255L48.9126 103.738H51.9956L76.2085 149.758ZM103.843 108.889L82.2993 149.758H79.2163L55.041 103.738H58.0864L80.7954 146.9L103.467 103.738H106.55V166H103.843V108.889ZM138.245 114.491C140.776 114.491 143.07 114.867 145.125 115.619C147.18 116.371 148.922 117.399 150.351 118.702C151.805 120.006 152.92 121.535 153.697 123.289C154.474 125.019 154.863 126.861 154.863 128.816V151.675C154.863 153.63 154.474 155.485 153.697 157.24C152.92 158.969 151.805 160.486 150.351 161.789C148.922 163.092 147.18 164.12 145.125 164.872C143.07 165.624 140.776 166 138.245 166H126.665C124.133 166 121.84 165.624 119.784 164.872C117.729 164.12 115.974 163.092 114.521 161.789C113.092 160.486 111.989 158.969 111.212 157.24C110.435 155.485 110.046 153.63 110.046 151.675V128.816C110.046 126.861 110.435 125.019 111.212 123.289C111.989 121.535 113.092 120.006 114.521 118.702C115.974 117.399 117.729 116.371 119.784 115.619C121.84 114.867 124.133 114.491 126.665 114.491H138.245ZM132.379 118.477L130.312 117.875H125.386L122.228 118.401L119.822 120.808V148.968H123.845V122.199C124.196 122.124 124.509 122.073 124.785 122.048C125.06 122.023 125.361 121.961 125.687 121.86H129.973C130.249 121.961 130.512 122.023 130.763 122.048C131.038 122.073 131.314 122.124 131.59 122.199V138.14H135.613V122.199L137.229 121.86H141.553C141.854 121.961 142.155 122.023 142.456 122.048C142.756 122.073 143.07 122.124 143.396 122.199V148.968H147.381V120.808L145.012 118.401L141.854 117.875H136.929L134.898 118.477L133.62 121.071L132.379 118.477Z" fill="#B8D0E0"/>
<path d="M87.8703 36.1005L91.2633 96H83.9988L82.1283 64.7235C82.0413 62.6065 81.9543 60.4605 81.8673 58.2855C81.7803 56.1105 81.7223 54.0225 81.6933 52.0215C81.6643 50.0205 81.6498 48.237 81.6498 46.671C81.6498 45.105 81.6498 43.887 81.6498 43.017L71.5578 85.2555H63.9888L53.1573 43.017C53.1863 43.858 53.2153 45.105 53.2443 46.758C53.2733 48.382 53.2878 50.2235 53.2878 52.2825C53.3168 54.3415 53.3023 56.4585 53.2443 58.6335C53.2153 60.7795 53.1573 62.7805 53.0703 64.6365L51.4608 96H44.3703L47.7633 36.1005H58.2903L67.9908 77.121L77.2563 36.1005H87.8703ZM101.626 35.361H105.106L126.247 72.771L147.301 35.361H150.52V95.913H101.626V35.361ZM104.845 92.781H147.301V41.886L127.726 76.338H124.681L104.845 41.364V92.781Z" fill="#B8D0E0"/>
</g>
<defs>
<clipPath id="clip0_42_8">
<rect width="200" height="200" fill="white"/>
</clipPath>
</defs>
</svg>
